:SAMPLES-PER-SECOND 30
:FULLY-SPECIFIED
:DEGREES
383
root  -54.562 34.7135 31.4673 -171.579 40.6619 178.946
RightUpLeg  -11.0704 -12.5051 0.27304
RightLeg  12.8703 -4.78131 -0.771158
RightFoot  -1.66738 -0.0394901 0.305259
RightToes  -18.5791 -0.100976 -0.170501
Spine  -1.70131 0.0813145 0.215378
Spine1  -3.29524 0.269675 1.02613
HEad  -52.9099 -1.5341 5.61115
LeftShoulder1  -1.94126e-019 -3.10601e-018 -2.51263e-017
LeftArm  -20.8571 31.9979 -79.0174
LeftForeArm  34.6753 -7.44974 -1.29878
LeftHand  -0.386439 -0.0493155 8.3171
RightShoulder  -4.96962e-017 0 -2.36833e-017
RightArm  -28.8212 -29.939 70.5703
RightForeArm  58.2506 12.8667 1.3869
RightHand  -0.282201 -1.09036 -7.53491
LeftUpLeg  -13.0185 -5.02842 2.15659
LeftLeg  9.78804 9.49785 1.00995
LeftFoot  6.53278 -0.0611041 1.21787
LeftToes  -23.2158 1.48321e-006 1.01846e-007
384
root  -54.5597 34.7518 31.4899 -171.587 40.7995 178.952
RightUpLeg  -10.7784 -12.4617 0.306702
RightLeg  12.1983 -4.7106 -0.70313
RightFoot  -1.29303 -0.0357255 0.273587
RightToes  -18.6884 -0.101906 -0.170527
Spine  -1.64727 -0.0463385 0.183693
Spine1  -3.23656 0.00367723 0.981854
HEad  -52.5716 -2.45515 5.52312
LeftShoulder1  -1.94126e-019 -3.10601e-018 -2.51263e-017
LeftArm  -19.8745 30.7072 -79.7482
LeftForeArm  34.2063 -8.4057 -1.46942
LeftHand  -0.381972 -0.26716 7.92395
RightShoulder  -4.96962e-017 0 -2.36833e-017
RightArm  -27.0024 -28.915 71.2076
RightForeArm  57.1022 13.8604 1.26457
RightHand  -0.312461 -0.673938 -7.66254
LeftUpLeg  -12.7265 -4.85416 2.17037
LeftLeg  9.19742 9.46233 0.90821
LeftFoot  6.86249 -0.0665302 1.27112
LeftToes  -23.2604 1.48321e-006 1.01846e-007
385
root  -54.5428 34.7984 31.5022 -171.518 41.1846 178.994
RightUpLeg  -10.4073 -12.168 0.358521
RightLeg  11.2603 -4.64396 -0.615597
RightFoot  -0.817399 -0.0314095 0.234634
RightToes  -18.7716 -0.102621 -0.170547
Spine  -1.59206 -0.0624653 0.14858
Spine1  -3.17113 -0.0457349 0.935139
HEad  -52.2976 -3.28586 5.36462
LeftShoulder1  -1.94126e-019 -3.10601e-018 -2.51263e-017
LeftArm  -18.301 29.2647 -80.4054
LeftForeArm  33.1962 -9.92547 -1.73925
LeftHand  -0.365164 -0.491343 7.30821
RightShoulder  -4.96962e-017 0 -2.36833e-017
RightArm  -24.6087 -27.9328 71.8188
RightForeArm  55.3467 15.2272 1.11518
RightHand  -0.322872 -0.518336 -7.68312
LeftUpLeg  -12.2054 -4.57798 2.20818
LeftLeg  8.17181 9.5812 0.747689
LeftFoot  7.35064 -0.0776405 1.3702
LeftToes  -23.4663 1.48321e-006 1.01846e-007
386
root  -54.5285 34.8563 31.5185 -171.457 41.5168 179.051
RightUpLeg  -9.89386 -11.9757 0.432279
RightLeg  10.0605 -4.53865 -0.505154
RightFoot  -0.213165 -0.0262961 0.184895
RightToes  -18.7393 -0.103089 -0.17055
Spine  -1.50091 -0.102785 0.109776
Spine1  -3.02327 -0.146149 0.881609
HEad  -52.289 -3.99207 5.302
LeftShoulder1  -1.94126e-019 -3.10601e-018 -2.51263e-017
LeftArm  -16.5506 27.5987 -80.9516
LeftForeArm  31.1859 -11.7581 -2.00347
LeftHand  -0.350616 -0.721915 6.77479
RightShoulder  -4.96962e-017 0 -2.36833e-017
RightArm  -22.5405 -26.8063 72.4044
RightForeArm  54.1227 16.6704 1.08284
RightHand  -0.337609 -0.356546 -7.79376
LeftUpLeg  -11.5702 -4.34556 2.25842
LeftLeg  6.92427 9.69603 0.5457
LeftFoot  7.89601 -0.0909987 1.48002
LeftToes  -23.3889 1.48321e-006 1.01846e-007
387
root  -54.5118 34.9224 31.5369 -171.398 41.8507 179.113
RightUpLeg  -9.30417 -11.6996 0.501669
RightLeg  8.73392 -4.47957 -0.393839
RightFoot  0.490388 -0.0207247 0.129221
RightToes  -18.7453 -0.103281 -0.170529
Spine  -1.46701 -0.115498 0.0579736
Spine1  -2.96922 -0.184123 0.798109
HEad  -52.1569 -4.45624 5.42725
LeftShoulder1  -1.94126e-019 -3.10601e-018 -2.51263e-017
LeftArm  -14.7203 26.0547 -81.3355
LeftForeArm  28.4523 -14.363 -2.33413
LeftHand  -0.334135 -0.95766 6.24043
RightShoulder  -4.96962e-017 0 -2.36833e-017
RightArm  -21.0601 -25.8667 72.9229
RightForeArm  53.4721 18.183 1.32373
RightHand  -0.357438 -0.0913005 -7.86515
LeftUpLeg  -10.8116 -4.1456 2.31941
LeftLeg  5.43228 9.83999 0.298485
LeftFoot  8.61407 -0.110373 1.62697
LeftToes  -23.5106 1.48321e-006 1.01846e-007
388
root  -54.502 34.9621 31.5552 -171.349 42.1186 179.159
RightUpLeg  -8.97933 -11.5451 0.562469
RightLeg  7.93613 -4.34234 -0.320948
RightFoot  0.902336 -0.0171849 0.103194
RightToes  -18.6177 -0.103163 -0.170473
Spine  -1.42746 -0.138186 -0.0142005
Spine1  -2.8918 -0.232401 0.685534
HEad  -52.181 -4.74321 5.55208
LeftShoulder1  -1.94126e-019 -3.10601e-018 -2.51263e-017
LeftArm  -12.6394 24.7956 -81.4961
LeftForeArm  26.0892 -18.9445 -3.00631
LeftHand  -0.292588 -0.753116 5.64162
RightShoulder  -4.96962e-017 0 -2.36833e-017
RightArm  -19.6072 -25.0858 73.3589
RightForeArm  53.0626 20.3959 1.74779
RightHand  -0.371934 0.0605727 -7.96994
LeftUpLeg  -10.347 -3.9652 2.36277
LeftLeg  4.50537 9.9504 0.14169
LeftFoot  9.0362 -0.123531 1.72474
LeftToes  -23.4643 1.48321e-006 1.01846e-007
389
root  -54.4864 34.9786 31.5699 -171.254 42.3601 179.202
RightUpLeg  -8.89252 -11.3311 0.623514
RightLeg  7.56971 -4.29885 -0.290126
RightFoot  1.10336 -0.0145359 0.0905169
RightToes  -18.66 -0.102705 -0.170375
Spine  -1.43184 -0.169875 -0.0490175
Spine1  -2.90241 -0.295252 0.626065
HEad  -52.0862 -4.65436 5.5168
LeftShoulder1  -1.94126e-019 -3.10601e-018 -2.51263e-017
LeftArm  -10.1256 23.7 -81.3941
LeftForeArm  23.368 -23.6668 -3.82811
LeftHand  -0.258282 -0.330272 5.31841
RightShoulder  -4.96962e-017 0 -2.36833e-017
RightArm  -18.0879 -24.5536 73.61
RightForeArm  52.8134 23.3436 2.3237
RightHand  -0.370748 0.0419268 -7.97013
LeftUpLeg  -10.1261 -3.81114 2.41156
LeftLeg  3.99454 10.014 0.0538256
LeftFoot  9.31526 -0.132439 1.78704
LeftToes  -23.7711 1.48321e-006 1.01846e-007
390
root  -54.4647 34.9888 31.5711 -171.148 42.498 179.229
RightUpLeg  -8.84111 -11.2862 0.671213
RightLeg  7.29798 -4.20276 -0.263637
RightFoot  1.21518 -0.0122969 0.084327
RightToes  -18.6937 -0.101876 -0.170226
Spine  -1.46895 -0.267124 -0.0563947
Spine1  -2.97631 -0.479835 0.610407
HEad  -51.807 -4.08101 5.10748
LeftShoulder1  -1.94126e-019 -3.10601e-018 -2.51263e-017
LeftArm  -9.69593 23.1791 -81.1156
LeftForeArm  20.0655 -29.7914 -5.33124
LeftHand  -0.174124 0.454293 4.08162
RightShoulder  -4.96962e-017 0 -2.36833e-017
RightArm  -16.7305 -24.0471 73.7531
RightForeArm  53.0673 25.8222 2.80643
RightHand  -0.400878 0.54962 -7.92363
LeftUpLeg  -9.95886 -3.73001 2.4508
LeftLeg  3.5684 10.1067 -0.0203979
LeftFoot  9.41868 -0.136841 1.82255
LeftToes  -23.5513 1.48321e-006 1.01846e-007
